<svg width="24" height="22" viewBox="0 0 24 22" fill="none" xmlns="http://www.w3.org/2000/svg">
<path fill-rule="evenodd" clip-rule="evenodd" d="M16.9991 14.1129L23.0021 19.8L21.0117 21.6856L15.0087 15.9985C13.4958 17.0474 11.6301 17.6667 9.61172 17.6667C4.55934 17.6667 0.463577 13.7865 0.463577 9.00001C0.463577 4.21354 4.55934 0.333344 9.61172 0.333344C14.6641 0.333344 18.7599 4.21354 18.7599 9.00001C18.7599 10.9121 18.1062 12.6797 16.9991 14.1129ZM9.61172 15C13.1095 15 15.9451 12.3137 15.9451 9.00001C15.9451 5.6863 13.1095 3.00001 9.61172 3.00001C6.11392 3.00001 3.27839 5.6863 3.27839 9.00001C3.27839 12.3137 6.11392 15 9.61172 15Z" fill="#AAAAAA"/>
</svg>
